<svg fill="none" height="889" viewBox="0 0 2295 889" width="2295" xmlns="http://www.w3.org/2000/svg"><path d="m2197 114.81-.58-23.91-72.05-.4601c4.5 81.0601 4.5 110.3301 4.5 247.2201 27 11.71 56.74 23.87 68.45 32.42l56.29-62.59c-15.76-1.35-42.33-10.35-57.19-18.91 0-80.61 0-105.82.9-133.29z" fill="#f74700"/><path d="m1193.92 288.58-67.55 49.08c27 11.71 54.5 23.87 66.2 32.42l56.29-62.59c-15.76-1.35-40.08-10.35-54.94-18.91z" fill="#b53a25"/><path d="m675.57 142.68 44.79-61.2297-.65-.4601-119.34 53.1398c4.51 53.13 4.51 98.61 4.51 189.58 30.17 9 78.8 27.91 118 46.37l52.69-62.59c-31.07-4.5-80.15-15.31-103.12-28.82 0-57.64 0-89.61 3.15-136z" fill="#f74700"/><path d="m440.35 308.08-8.42-2.84c-24.77-6.3-49.08-14.41-69.34-26.57 0-57.64 1-89.72 4.14-136.1h.17l44.36-60.57-1.39-1-119.33 53.13c4.5 53.13 4.5 98.61 4.5 189.58 25.22 6.3 60.79 27.91 93.66 46.37 0 0 40.53-48.18 50.44-59.89z" fill="#f74700"/><path d="m1525.81 317-75.21-10.36c-27.46-6.75-55.83-14.86-77.89-27.92 0-57.19 0-89.16 3.15-134.64l.31.05 52.83-63.13-128.33 53.14c4.5 53.13 4.5 98.61 4.5 189.58 25.21 6.3 73.4 32.87 92.31 46.37z" fill="#f74700"/><path d="m2057.51 218.3h-55.24-54.93c.45-25.67 1.35-48.18 3.15-75.65l.33.1 43.86-61.75-119.34 53.14c4.51 53.13 4.51 98.61 4.51 189.58 30.16 9 78.8 27.91 118 46.37l52.69-62.59c-31.07-4.5-80.15-15.31-103.12-28.82v-40.54l57.19 22.52c19.19-16.51 29.1-25.51 52.95-42.33" fill="#f74700"/><g fill="#b53a25"><path d="m79.3199 90.8999 111.2201 13.5001 15.32-76.5501-134.7101-13.47 8.14 76.93z"/><path d="m220.72 399.81c-4.51-81.06-4.51-139.15-4.51-230.11-25.22-6.3-77.9-32.87-96.81-46.39 0 0-25.8701 28.78-42.5401 47.35v19.34c23.7801 7.18 48.0001 15.72 67.3101 28.74 0 72.05 0 109-4.51 190z"/><path d="m2128.59 338.12c26.88 11.64 57 23.47 68.69 32l56.29-62.59c-14.89-1.28-41.28-10.91-56.48-19z"/><path d="m1281.72 740-15.1-69.31-78.2 13.33c-15.11-39.1-21.78-61.32-31.55-100.42 22.21-13.77 70.2-44.43 90.64-61.31 36 8.88 72.43 19.55 101.75 19.55l-18.66 72.42c-28.44-6.22-69.32-21.77-96-33.32l25.32 74.64 68-20.88c12 36 20 69.31 28 112-28.43 19.11-54.65 45.76-70.64 60-47.1-8.88-72.87-13.77-122.19-13.77 7.11-31.55 20-56.87 32-76z"/><path d="m1493.65 531.15h39.1l-6.22 44h-34.21c-.89 37.33-.89 78.64-.89 151.07 14.67 8.44 38.66 17.33 54.21 18.66l-55.54 61.76c-11.55-8.44-38.66-20.44-65.32-32 0-82.64 0-145.29-.88-199.5h-21.33c8-19.55 12-24.44 20-44-.44-18.21-1.33-36-2.22-53.32l75.53 8.89c-.88 16.45-1.78 30.67-2.23 44.44z"/></g><path d="m1424.78 774.64c0-82.64 0-145.29-.88-199.5h-21.33c8-19.55 12-24.44 20-44-.44-18.21-1.33-36-2.22-53.32l75.53 8.89c-.88 16.44-1.77 30.66-2.22 44.43h39.1l-6.22 44h-34.21c-.89 37.33-.89 78.64-.89 151.07" fill="#f74700"/><path d="m1198.52 682.28 69.84-29.3-8.41 2.58-25.32-74.64 10.22-56.52c-21.66 17.22-66.66 46-88 59.18 9.77 39.1 16.44 61.32 31.55 100.42z" fill="#f74700"/><path d="m1281.72 740-86.64-23.1c-12 19.11-24.88 44.43-32 76 49.32 0 75.09 4.89 122.19 13.77 15.78-14 41.52-40.16 69.52-59.2z" fill="#f74700"/><path d="m1107 552.75-.91 104.92c-24.31 17.12-34.22 26.13-53.58 42.79l-57.19-22.52v40.53c23 13.51 72 24.32 103.12 28.82l-52.69 62.59c-39.17-18.46-87.81-37.37-118-46.38 0-91 0-136.45-4.5-189.58l119.34-53.13c18.93 13.5 36.48 18.91 64.41 31.96zm-56.75 105.37v-54.93c-16.21-8.1-31.07-14-51.78-20.71-1.8 27.46-2.7 50-3.15 75.64z" fill="#f74700"/><path d="m1001.38 582.48-.07.94c19.22 6.36 33.5 12.05 48.94 19.77v54.93h55.21l.63-.45.91-104.92c-26.65-12.45-43.85-18-61.8-30.17z" fill="#b53a25"/><path d="m831.645 814.341.641-.376c-.891-103.441 0-139.571 2.663-250.11h24.028l19.133-50.716h-41.819l5.209-43.139c27.142-8.616 48.546-22.964 69-26-.881-.514-54.957-33.301-66.5-48-11.574 9.632-51.3 22.315-77.991 35.519 1.331 25.86 2.673 53.238 3.564 81.631h-.441l-19.132 50.716h21.355c.25 8.856.491 17.347.721 25.575h-8.951c.901 62.699.901 186.578.901 282.155 27.032 13.364 23.929 7.635 35.642 17.404l64.075-59.343c-15.778-1.552-17.22-4.303-32.098-14.06z" fill="#b53a25"/><path d="m841 477.5 24.5-13.5 43.565 28.312 30.473-46.542c-.015-.272-.123-1.269-.157-1.493l-87.608-56.837c-24.905 15.659-71.789 37.08-91.773 45.56z" fill="#b53a25"/><path d="m836.406 513.253 4.594-36.253 10-89c-8.202 6.854-43.711 22.684-61.85 31.96v-.343l-29.618 13.24c.892 20.059 1.804 40.644 2.256 61.685-.291.32-.301 7.916-.181 18.666h-34.06l-17.547 50.765h52.499c.321 14.553.602 25.599.602 25.599.903 62.759.902 186.758.902 282.428l67.721-56.054v-1.245l.641-.377c-.892-103.54 0-139.706 2.667-250.351h43.225l19.743-50.72z" fill="#f74700"/><path d="m79.2898 91.3099-8.14-76.93h-.39c-20.71 17.12-45.93 36.92-68.44002 50.88 4.5 81.0601 2.69999 210.7501-1.810014 295.8601h80.610034c-2.14-40.65-3.7-87.5-4.26-134.31v-81.88z" fill="#f74700"/><path d="m917.62 138.29c1.82-52.0002 2-91.5302 3.84-123.9502l-76.55 9c4.5 81.0002 3.61 200.8302 3.61 337.7302h68.48v-121.57z" fill="#f74700"/><path d="m1045.29 230.49c-15.3-6.76-32.42-14.86-46.37-22.06l36.91-14v-80.57c-34.21-11.26-45.92-17.9998-70.69-32.8698 0 0-31.38 34.5798-47.17 52.3598l-.11 12c21.62 4 31.07 5.86 50.44 11.25v23.9c0 4.49-30.9 29.13-51.17 47.13l-.09 10.68 1 .79c26 9.44 45.8 17.52 59.73 23.81 0 22.52-.45 80.6-.45 99.52l68 8.1c-2.32-34.66-2.32-100.41-.03-140.04z" fill="#b53a25"/><path d="m675.57 142.68c28.37 9.45 46.39 16.66 70.7 31.52l37.83-61.2c-27.6-12.91-45.07-18.35-63.74-31.52z" fill="#b53a25"/><path d="m502.64 288.58c-.74-80.52-.46-99.52-.46-161.21-24.65-6.17-71.18-31.66-90.91-45.37l-44.42 60.73.06.22c27.68 5 45.08 12.53 67.73 22.3 0 41-1.11 77.44-2.71 140l8.42 2.84-1.06 2.35c17.55 28.71 41.76 51.57 53 59.65l56.28-62.59c-15.31-2.26-31.08-10.36-45.93-18.92z" fill="#b53a25"/><path d="m1126.37 337.66c0-83.75 0-147.25-.89-202.19h-21.62c8.1-19.81 12.16-24.76 20.26-44.5701-.45-18.47-1.35-36.48-2.25-54l76.55 9c-.89 16.66-1.8 31.07-2.25 45h39.62l-6.3 44.5701h-34.67c-.9 37.83-.9 79.71-.9 153.11z" fill="#f74700"/><path d="m1376 144.34 4.41.53c26.05 4.88 52.54 11.38 73.4 20.33 0 42.32 0 75.64-3.16 141.39l75.16 10.41c-4.5-81.06-4.5-127.89-4.5-189.58-25.22-6.31-73.41-32.88-92.32-46.38z" fill="#b53a25"/><path d="m1664 135c2.62-57.8899 1.7-104.7799 2.75-134.149902l-71.15 22.520002c1.35 80.9999.45 238.6599.45 300.3599 25.22 6.3 73.41 32.87 92.32 46.37l119.36-53.1v-.14l-75.45-8.29v-.17c-28.23-5-45.75-12.6-68.65-22.48 0-22 0-80.15.45-140.49z" fill="#f74700"/><path d="m1807.72 316.81c-4.49-53.07-4.49-98.56-4.49-189.44-25.23-6.31-60.8-27.9198-93.67-46.3798 0 0-30.8 36.4598-45.31 53.8298v10.6c25.61 6.3 50.34 14.84 71.46 27 0 57.11-1.06 90.14-3.41 136.12z" fill="#b53a25"/><path d="m1950.6 143.1 2.88.91c19.23 6.36 32.93 11.24 48.37 19v54.94l55.63.42c.22-.16 1-.79 1.17-.94l.35-104.43c-26.65-12.46-46.2-20-64.15-32.21z" fill="#b53a25"/><path d="m2223.85 81.8901-26.12 32.4199-.64.71v39.91l3.21 1.65c13.92 5.865 27.51 12.498 40.7 19.87l54-61.69c-21.17-10.36-49.09-22.0699-71.15-32.8699z" fill="#b53a25"/><path d="m319.56 685.86 67.44-89.64 11.21-47.62c-19.1 6.62-37.44 17.57-54 27.5l-23.17-39c23.42-6.62 39.47-13 62.39-21.65l62.39 36.17-25.21 70.28-50.93 54.5c23.93 0 48.38.25 70.54-3.06l-12.74 38.2h-93.41z" fill="#677662"/><path d="m613.18 546.82c0 34.89.26 94 2.81 139.81l-72.58 30c-10.7-7.64-37.95-22.67-52.21-26.23 0-51.45-.25-109.76-2.8-139.81l72.58-30c10.69 7.64 37.94 22.66 52.2 26.23zm-39.72 133.95c1.78-37.18 1.52-88.62 1.52-112.56-12.47-5.35-28.52-9.17-44.05-12-1.78 26.48-1.53 76.4-1.53 108.74 12.48 7.42 28.52 12.05 44.06 15.82z" fill="#677662"/><path d="m1651.08 685.86 67.49-89.64 11.2-47.62c-19.1 6.62-37.43 17.57-54 27.5l-23.17-39c23.43-6.62 39.47-13 62.39-21.65l62.39 36.17-25.21 70.28-50.93 54.5c23.94 0 48.39.25 70.54-3.06l-12.73 38.2h-93.45z" fill="#677662"/><path d="m1833.17 716.93c0-19.86-1.79-111.29-1.79-145.66l22.67-14.78h-34.13l6.63-35.9h45.83l-2.8 35.65c.26 55.77.77 131.15 2.8 155.6z" fill="#677662"/></svg>